<svg width="280" height="58" viewBox="0 0 280 58" fill="none" xmlns="http://www.w3.org/2000/svg">
<path d="M0 57.1645V0.765905H16.1244C20.0772 0.765905 23.4997 1.18367 26.392 2.01921C29.2842 2.85474 31.5257 4.36334 33.1165 6.54502C34.7555 8.68027 35.5749 11.7207 35.5749 15.6663C35.5749 17.9872 35.3821 20.0528 34.9965 21.8631C34.6108 23.6735 33.8878 25.2517 32.8273 26.5978C31.815 27.8976 30.3447 28.9884 28.4166 29.8703L36.4426 57.1645H23.0659L16.6306 31.8896H12.9429V57.1645H0ZM12.9429 24.7179H16.5582C18.39 24.7179 19.8121 24.4162 20.8243 23.8127C21.8366 23.1629 22.5356 22.2577 22.9212 21.0972C23.3551 19.8904 23.572 18.4514 23.572 16.7803C23.572 14.3665 23.1141 12.4866 22.1982 11.1405C21.2823 9.79432 19.5951 9.12125 17.1367 9.12125H12.9429V24.7179Z" fill="#F9F9F9"/>
<path d="M44.6677 57.1645V0.765905H57.6106V57.1645H44.6677Z" fill="#F9F9F9"/>
<path d="M64.7634 57.1645L75.8264 0.765905H90.577L101.495 57.1645H89.5647L87.6124 45.2581H79.0079L76.9833 57.1645H64.7634ZM80.1648 37.8079H86.3832L83.274 15.8055L80.1648 37.8079Z" fill="#F9F9F9"/>
<path d="M125.568 57.1645L136.631 0.765905H151.382L162.3 57.1645H150.369L148.417 45.2581H139.813L137.788 57.1645H125.568ZM140.969 37.8079H147.188L144.079 15.8055L140.969 37.8079Z" fill="#F9F9F9"/>
<path d="M185.808 58C181.325 58 177.806 57.3037 175.251 55.9112C172.744 54.4722 170.985 52.4066 169.973 49.7143C168.96 46.9756 168.454 43.6335 168.454 39.6879V0.765905H181.252V41.5678C181.252 42.7283 181.349 43.8888 181.542 45.0492C181.734 46.2097 182.144 47.1613 182.771 47.904C183.446 48.6467 184.458 49.018 185.808 49.018C187.206 49.018 188.218 48.6467 188.845 47.904C189.471 47.1613 189.857 46.2097 190.002 45.0492C190.194 43.8888 190.291 42.7283 190.291 41.5678V0.765905H203.161V39.6879C203.161 43.6335 202.631 46.9756 201.571 49.7143C200.558 52.4066 198.799 54.4722 196.292 55.9112C193.786 57.3037 190.291 58 185.808 58Z" fill="#F9F9F9"/>
<path d="M217.914 57.1645V10.0264H209.093V0.765905H239.679V10.0264H230.93V57.1645H217.914Z" fill="#F9F9F9"/>
<path d="M262.285 58C257.898 58 254.428 57.2573 251.873 55.7719C249.318 54.2865 247.486 52.1513 246.377 49.3661C245.269 46.581 244.714 43.2621 244.714 39.4094V18.4514C244.714 14.5522 245.269 11.2333 246.377 8.4946C247.486 5.7559 249.318 3.66707 251.873 2.22809C254.428 0.742697 257.898 0 262.285 0C266.72 0 270.214 0.742697 272.769 2.22809C275.372 3.66707 277.228 5.7559 278.337 8.4946C279.446 11.2333 280 14.5522 280 18.4514V39.4094C280 43.2621 279.446 46.581 278.337 49.3661C277.228 52.1513 275.372 54.2865 272.769 55.7719C270.214 57.2573 266.72 58 262.285 58ZM262.285 49.1573C263.635 49.1573 264.623 48.8323 265.249 48.1825C265.876 47.5326 266.286 46.6971 266.479 45.6759C266.671 44.6547 266.768 43.6102 266.768 42.5426V15.3878C266.768 14.2737 266.671 13.2293 266.479 12.2545C266.286 11.2333 265.876 10.3978 265.249 9.7479C264.623 9.09804 263.635 8.77311 262.285 8.77311C261.032 8.77311 260.092 9.09804 259.465 9.7479C258.838 10.3978 258.428 11.2333 258.236 12.2545C258.043 13.2293 257.946 14.2737 257.946 15.3878V42.5426C257.946 43.6102 258.019 44.6547 258.163 45.6759C258.356 46.6971 258.742 47.5326 259.32 48.1825C259.947 48.8323 260.935 49.1573 262.285 49.1573Z" fill="#F9F9F9"/>
</svg>
