<svg width="20" height="16" viewBox="0 0 20 16" fill="none" xmlns="http://www.w3.org/2000/svg">
<path fill-rule="evenodd" clip-rule="evenodd" d="M10 0C10.855 0 11.732 0.0207608 12.582 0.0547329L13.586 0.100029L14.547 0.153818L15.447 0.211382L16.269 0.271777C17.1612 0.335844 18.0008 0.694951 18.64 1.28585C19.2791 1.87674 19.6768 2.66152 19.763 3.50196L19.803 3.90302L19.878 4.76176C19.948 5.65164 20 6.62173 20 7.54936C20 8.47699 19.948 9.44708 19.878 10.337L19.803 11.1957L19.763 11.5968C19.6768 12.4373 19.2789 13.2222 18.6396 13.8132C18.0002 14.4041 17.1604 14.7631 16.268 14.8269L15.448 14.8864L14.548 14.9449L13.586 14.9987L12.582 15.044C11.7218 15.0791 10.861 15.0974 10 15.0987C9.13902 15.0974 8.27817 15.0791 7.418 15.044L6.414 14.9987L5.453 14.9449L4.553 14.8864L3.731 14.8269C2.83881 14.7629 1.9992 14.4038 1.36004 13.8129C0.720888 13.222 0.323191 12.4372 0.237 11.5968L0.197 11.1957L0.122 10.337C0.0458327 9.40945 0.00513964 8.47964 0 7.54936C0 6.62173 0.052 5.65164 0.122 4.76176L0.197 3.90302L0.237 3.50196C0.323157 2.66167 0.720712 1.87701 1.35966 1.28613C1.99861 0.695257 2.83799 0.336056 3.73 0.271777L4.551 0.211382L5.451 0.153818L6.413 0.100029L7.417 0.0547329C8.2775 0.0195596 9.13869 0.00131131 10 0ZM8 5.26096V9.83776C8 10.2737 8.5 10.5455 8.9 10.3285L13.1 8.04007C13.1914 7.99042 13.2673 7.91892 13.3201 7.83278C13.3729 7.74663 13.4007 7.64887 13.4007 7.54936C13.4007 7.44985 13.3729 7.35209 13.3201 7.26594C13.2673 7.17979 13.1914 7.1083 13.1 7.05865L8.9 4.77119C8.80876 4.72148 8.70526 4.69532 8.5999 4.69534C8.49455 4.69535 8.39106 4.72155 8.29983 4.77129C8.20861 4.82102 8.13287 4.89255 8.08024 4.97868C8.02761 5.0648 7.99993 5.16248 8 5.2619V5.26096Z" fill="#9999A0"/>
</svg>
