<svg width="36" height="29" viewBox="0 0 36 29" fill="none" xmlns="http://www.w3.org/2000/svg">
<path fill-rule="evenodd" clip-rule="evenodd" d="M18 0C19.539 0 21.1176 0.0396002 22.6476 0.1044L24.4548 0.1908L26.1846 0.2934L27.8046 0.4032L29.2842 0.5184C30.8901 0.640604 32.4014 1.32558 33.5519 2.45268C34.7024 3.57978 35.4183 5.07671 35.5734 6.6798L35.6454 7.4448L35.7804 9.0828C35.9064 10.7802 36 12.6306 36 14.4C36 16.1694 35.9064 18.0198 35.7804 19.7172L35.6454 21.3552L35.5734 22.1202C35.4182 23.7236 34.7021 25.2207 33.5512 26.3479C32.4004 27.475 30.8887 28.1598 29.2824 28.2816L27.8064 28.395L26.1864 28.5066L24.4548 28.6092L22.6476 28.6956C21.0993 28.7627 19.5498 28.7975 18 28.8C16.4502 28.7975 14.9007 28.7627 13.3524 28.6956L11.5452 28.6092L9.8154 28.5066L8.1954 28.395L6.7158 28.2816C5.10986 28.1594 3.59856 27.4744 2.44808 26.3473C1.2976 25.2202 0.581743 23.7233 0.4266 22.1202L0.3546 21.3552L0.2196 19.7172C0.0824989 17.948 0.00925135 16.1745 0 14.4C0 12.6306 0.0936 10.7802 0.2196 9.0828L0.3546 7.4448L0.4266 6.6798C0.581683 5.077 1.29728 3.58029 2.44739 2.45323C3.59751 1.32617 5.10838 0.641009 6.714 0.5184L8.1918 0.4032L9.8118 0.2934L11.5434 0.1908L13.3506 0.1044C14.8995 0.037309 16.4496 0.00250125 18 0ZM14.4 10.035V18.765C14.4 19.5966 15.3 20.115 16.02 19.701L23.58 15.336C23.7445 15.2413 23.8811 15.1049 23.9762 14.9406C24.0712 14.7763 24.1212 14.5898 24.1212 14.4C24.1212 14.2102 24.0712 14.0237 23.9762 13.8594C23.8811 13.6951 23.7445 13.5587 23.58 13.464L16.02 9.1008C15.8558 9.00598 15.6695 8.95608 15.4798 8.95611C15.2902 8.95614 15.1039 9.0061 14.9397 9.10097C14.7755 9.19584 14.6392 9.33228 14.5444 9.49656C14.4497 9.66084 14.3999 9.84716 14.4 10.0368V10.035Z" fill="#9999A0"/>
</svg>
