<svg width="36" height="36" viewBox="0 0 36 36" fill="none" xmlns="http://www.w3.org/2000/svg">
<path d="M19.8504 0C21.8753 0.00539987 22.9031 0.0161996 23.7904 0.041399L24.1396 0.0539986C24.5428 0.0683983 24.9406 0.0863978 25.4211 0.107997C27.3362 0.197995 28.643 0.500388 29.7895 0.944977C30.9775 1.40217 31.9782 2.02135 32.979 3.02033C33.8946 3.91982 34.6028 5.00833 35.0543 6.20985C35.4988 7.35642 35.8012 8.66319 35.8912 10.5801C35.9128 11.0589 35.9308 11.4567 35.9452 11.8617L35.956 12.2109C35.983 13.0965 35.9938 14.1243 35.9974 16.1492L35.9992 17.492V19.8499C36.0036 21.1628 35.9898 22.4757 35.9578 23.7882L35.947 24.1374C35.9326 24.5424 35.9146 24.9402 35.893 25.419C35.803 27.3359 35.497 28.6409 35.0543 29.7893C34.6028 30.9908 33.8946 32.0793 32.979 32.9788C32.0795 33.8944 30.991 34.6027 29.7895 35.0542C28.643 35.4987 27.3362 35.8011 25.4211 35.8911L24.1396 35.9451L23.7904 35.9559C22.9031 35.9811 21.8753 35.9937 19.8504 35.9973L18.5077 35.9991H16.1516C14.8381 36.0038 13.5247 35.99 12.2116 35.9577L11.8624 35.9469C11.4351 35.9307 11.008 35.9121 10.5809 35.8911C8.66579 35.8011 7.35905 35.4987 6.21071 35.0542C5.00987 34.6025 3.92202 33.8942 3.02307 32.9788C2.10682 32.0795 1.39795 30.991 0.945976 29.7893C0.501399 28.6427 0.199014 27.3359 0.109018 25.419L0.055021 24.1374L0.0460217 23.7882C0.0128422 22.4757 -0.00215862 21.1628 0.00102378 19.8499V16.1492C-0.00395818 14.8363 0.00924256 13.5234 0.0406219 12.2109L0.0532212 11.8617C0.0676205 11.4567 0.0856195 11.0589 0.107218 10.5801C0.197214 8.66319 0.499599 7.35822 0.944176 6.20985C1.3972 5.00784 2.10732 3.91929 3.02487 3.02033C3.9233 2.10514 5.01051 1.3969 6.21071 0.944977C7.35905 0.500388 8.66399 0.197995 10.5809 0.107997C11.0597 0.0863978 11.4592 0.0683983 11.8624 0.0539986L12.2116 0.0431988C13.5241 0.0112186 14.8369 -0.00258239 16.1498 0.00179983L19.8504 0ZM18.0001 8.99978C15.6133 8.99978 13.3242 9.94797 11.6365 11.6358C9.94873 13.3235 9.00057 15.6127 9.00057 17.9996C9.00057 20.3865 9.94873 22.6756 11.6365 24.3634C13.3242 26.0512 15.6133 26.9993 18.0001 26.9993C20.3869 26.9993 22.676 26.0512 24.3638 24.3634C26.0515 22.6756 26.9997 20.3865 26.9997 17.9996C26.9997 15.6127 26.0515 13.3235 24.3638 11.6358C22.676 9.94797 20.3869 8.99978 18.0001 8.99978ZM18.0001 12.5997C18.7092 12.5996 19.4114 12.7391 20.0666 13.0104C20.7217 13.2817 21.3171 13.6793 21.8186 14.1806C22.3201 14.682 22.7179 15.2772 22.9894 15.9323C23.2608 16.5874 23.4006 17.2895 23.4007 17.9987C23.4009 18.7078 23.2613 19.41 22.9901 20.0652C22.7188 20.7204 22.3212 21.3157 21.8198 21.8172C21.3185 22.3187 20.7233 22.7166 20.0682 22.988C19.4132 23.2595 18.711 23.3993 18.0019 23.3994C16.5698 23.3994 15.1964 22.8305 14.1837 21.8179C13.1711 20.8052 12.6022 19.4317 12.6022 17.9996C12.6022 16.5674 13.1711 15.194 14.1837 14.1813C15.1964 13.1686 16.5698 12.5997 18.0019 12.5997M27.4514 6.29985C26.8547 6.29985 26.2825 6.53689 25.8605 6.95884C25.4386 7.38079 25.2016 7.95307 25.2016 8.54979C25.2016 9.14652 25.4386 9.7188 25.8605 10.1407C26.2825 10.5627 26.8547 10.7997 27.4514 10.7997C28.0481 10.7997 28.6204 10.5627 29.0423 10.1407C29.4643 9.7188 29.7013 9.14652 29.7013 8.54979C29.7013 7.95307 29.4643 7.38079 29.0423 6.95884C28.6204 6.53689 28.0481 6.29985 27.4514 6.29985Z" fill="#9999A0"/>
</svg>
