<svg width="172" height="36" viewBox="0 0 172 36" fill="none" xmlns="http://www.w3.org/2000/svg">
<path d="M0 35.4814V0.475389H9.90499C12.3331 0.475389 14.4355 0.734693 16.2122 1.2533C17.9889 1.77191 19.3658 2.70828 20.343 4.06242C21.3498 5.38775 21.8532 7.27491 21.8532 9.72389C21.8532 11.1645 21.7347 12.4466 21.4978 13.5702C21.2609 14.6939 20.8168 15.6735 20.1653 16.509C19.5435 17.3157 18.6403 17.9928 17.4559 18.5402L22.3862 35.4814H14.169L10.2159 19.7935H7.95064V35.4814H0ZM7.95064 15.3421H10.1715C11.2967 15.3421 12.1703 15.1549 12.7921 14.7803C13.4139 14.377 13.8433 13.8151 14.0802 13.0948C14.3467 12.3457 14.4799 11.4526 14.4799 10.4154C14.4799 8.91717 14.1986 7.7503 13.636 6.91477C13.0734 6.07923 12.037 5.66146 10.5268 5.66146H7.95064V15.3421Z" fill="#F9F9F9"/>
<path d="M27.4387 35.4814V0.475389H35.3893V35.4814H27.4387Z" fill="#F9F9F9"/>
<path d="M39.7833 35.4814L46.5791 0.475389H55.6401L62.3471 35.4814H55.0183L53.819 28.0912H48.5334L47.2897 35.4814H39.7833ZM49.2441 23.467H53.0639L51.154 9.81032L49.2441 23.467Z" fill="#F9F9F9"/>
<path d="M77.1347 35.4814L83.9305 0.475389H92.9916L99.6985 35.4814H92.3697L91.1705 28.0912H85.8848L84.6412 35.4814H77.1347ZM86.5955 23.467H90.4154L88.5054 9.81032L86.5955 23.467Z" fill="#F9F9F9"/>
<path d="M114.139 36C111.385 36 109.224 35.5678 107.654 34.7035C106.114 33.8103 105.034 32.5282 104.412 30.8571C103.79 29.1573 103.479 27.0828 103.479 24.6339V0.475389H111.341V25.8007C111.341 26.521 111.4 27.2413 111.518 27.9616C111.637 28.6819 111.889 29.2725 112.273 29.7335C112.688 30.1945 113.31 30.425 114.139 30.425C114.998 30.425 115.62 30.1945 116.005 29.7335C116.389 29.2725 116.626 28.6819 116.715 27.9616C116.834 27.2413 116.893 26.521 116.893 25.8007V0.475389H124.799V24.6339C124.799 27.0828 124.473 29.1573 123.822 30.8571C123.2 32.5282 122.119 33.8103 120.579 34.7035C119.04 35.5678 116.893 36 114.139 36Z" fill="#F9F9F9"/>
<path d="M133.862 35.4814V6.22329H128.443V0.475389H147.231V6.22329H141.857V35.4814H133.862Z" fill="#F9F9F9"/>
<path d="M161.118 36C158.423 36 156.291 35.539 154.722 34.617C153.152 33.6951 152.027 32.3697 151.346 30.6411C150.665 28.9124 150.324 26.8523 150.324 24.461V11.4526C150.324 9.03241 150.665 6.97239 151.346 5.27251C152.027 3.57263 153.152 2.27611 154.722 1.38295C156.291 0.460984 158.423 0 161.118 0C163.842 0 165.989 0.460984 167.558 1.38295C169.157 2.27611 170.297 3.57263 170.978 5.27251C171.659 6.97239 172 9.03241 172 11.4526V24.461C172 26.8523 171.659 28.9124 170.978 30.6411C170.297 32.3697 169.157 33.6951 167.558 34.617C165.989 35.539 163.842 36 161.118 36ZM161.118 30.5114C161.947 30.5114 162.554 30.3097 162.939 29.9064C163.324 29.503 163.576 28.9844 163.694 28.3505C163.812 27.7167 163.872 27.0684 163.872 26.4058V9.55102C163.872 8.85954 163.812 8.21128 163.694 7.60624C163.576 6.97239 163.324 6.45378 162.939 6.05042C162.554 5.64706 161.947 5.44538 161.118 5.44538C160.348 5.44538 159.771 5.64706 159.386 6.05042C159.001 6.45378 158.749 6.97239 158.63 7.60624C158.512 8.21128 158.453 8.85954 158.453 9.55102V26.4058C158.453 27.0684 158.497 27.7167 158.586 28.3505C158.704 28.9844 158.941 29.503 159.297 29.9064C159.682 30.3097 160.289 30.5114 161.118 30.5114Z" fill="#F9F9F9"/>
</svg>
