<svg width="24" height="30" viewBox="0 0 24 30" fill="none" xmlns="http://www.w3.org/2000/svg">
<path d="M22.5833 15.9173C22.5833 22.5839 17.9167 25.9173 12.37 27.8506C12.0796 27.949 11.7641 27.9443 11.4767 27.8373C5.91667 25.9173 1.25 22.5839 1.25 15.9173V6.58393C1.25 6.23031 1.39048 5.89117 1.64052 5.64112C1.89057 5.39108 2.22971 5.2506 2.58333 5.2506C5.25 5.2506 8.58333 3.6506 10.9033 1.62393C11.1858 1.3826 11.5451 1.25 11.9167 1.25C12.2882 1.25 12.6475 1.3826 12.93 1.62393C15.2633 3.66393 18.5833 5.2506 21.25 5.2506C21.6036 5.2506 21.9428 5.39108 22.1928 5.64112C22.4429 5.89117 22.5833 6.23031 22.5833 6.58393V15.9173Z" stroke="#373ED6" stroke-width="2.5" stroke-linecap="round" stroke-linejoin="round"/>
<path d="M7.91663 14.5839L10.5833 17.2506L15.9166 11.9172" stroke="#373ED6" stroke-width="2.5" stroke-linecap="round" stroke-linejoin="round"/>
</svg>
