<svg width="24" height="24" viewBox="0 0 24 24" fill="none" xmlns="http://www.w3.org/2000/svg">
<path d="M21.25 17.25V21.25C21.25 21.6036 21.1095 21.9428 20.8595 22.1928C20.6094 22.4429 20.2703 22.5833 19.9167 22.5833H3.91667C3.20942 22.5833 2.53115 22.3024 2.03105 21.8023C1.53095 21.3022 1.25 20.6239 1.25 19.9167V3.91667C1.25 3.20942 1.53095 2.53115 2.03105 2.03105C2.53115 1.53095 3.20942 1.25 3.91667 1.25H17.25C17.6036 1.25 17.9428 1.39048 18.1928 1.64052C18.4429 1.89057 18.5833 2.22971 18.5833 2.58333V6.58333M1.25 3.91667C1.25 4.62391 1.53095 5.30219 2.03105 5.80229C2.53115 6.30238 3.20942 6.58333 3.91667 6.58333H19.9167C20.2703 6.58333 20.6094 6.72381 20.8595 6.97386C21.1095 7.22391 21.25 7.56304 21.25 7.91667V11.9167" stroke="#373ED6" stroke-width="2.5" stroke-linecap="round" stroke-linejoin="round"/>
<path d="M22.5834 11.9167V17.2501H17.25C16.5428 17.2501 15.8645 16.9691 15.3644 16.469C14.8643 15.9689 14.5834 15.2907 14.5834 14.5834C14.5834 13.8762 14.8643 13.1979 15.3644 12.6978C15.8645 12.1977 16.5428 11.9167 17.25 11.9167H22.5834Z" stroke="#373ED6" stroke-width="2.5" stroke-linecap="round" stroke-linejoin="round"/>
</svg>
