<svg width="28" height="28" viewBox="0 0 28 28" fill="none" xmlns="http://www.w3.org/2000/svg">
<path d="M15.472 0.606796C15.3871 0.425432 15.2523 0.272024 15.0833 0.164552C14.9143 0.057081 14.7182 0 14.518 0C14.3178 0 14.1217 0.057081 13.9527 0.164552C13.7837 0.272024 13.6489 0.425432 13.564 0.606796L12.788 2.26946L11.1253 3.04546C10.9443 3.13051 10.7913 3.26533 10.6841 3.43415C10.5769 3.60297 10.52 3.79882 10.52 3.9988C10.52 4.19878 10.5769 4.39463 10.6841 4.56345C10.7913 4.73227 10.9443 4.86708 11.1253 4.95213L12.788 5.72813L13.564 7.3908C13.649 7.57179 13.7839 7.72484 13.9527 7.83204C14.1215 7.93924 14.3174 7.99617 14.5173 7.99617C14.7173 7.99617 14.9132 7.93924 15.082 7.83204C15.2508 7.72484 15.3856 7.57179 15.4707 7.3908L16.2467 5.72813L17.9093 4.95213C18.0903 4.86708 18.2434 4.73227 18.3506 4.56345C18.4578 4.39463 18.5147 4.19878 18.5147 3.9988C18.5147 3.79882 18.4578 3.60297 18.3506 3.43415C18.2434 3.26533 18.0903 3.13051 17.9093 3.04546L16.2467 2.26946L15.472 0.606796ZM13.952 2.92546L14.5173 1.7148L15.0827 2.92546C15.1882 3.14844 15.3677 3.32796 15.5907 3.43346L16.8013 3.9988L15.5907 4.56413C15.3677 4.66963 15.1882 4.84915 15.0827 5.07213L14.5173 6.2828L13.952 5.07213C13.8465 4.84915 13.667 4.66963 13.444 4.56413L12.2333 3.9988L13.444 3.43346C13.667 3.32796 13.8465 3.14844 13.952 2.92546ZM4.82667 4.6508C4.91741 4.4557 5.06199 4.29058 5.2434 4.17488C5.42481 4.05918 5.6355 3.99772 5.85067 3.99772C6.06583 3.99772 6.27652 4.05918 6.45793 4.17488C6.63934 4.29058 6.78393 4.4557 6.87467 4.6508L7.82667 6.6908L9.86533 7.64146C10.0604 7.7322 10.2255 7.87679 10.3412 8.0582C10.4569 8.23961 10.5184 8.4503 10.5184 8.66546C10.5184 8.88063 10.4569 9.09132 10.3412 9.27273C10.2255 9.45414 10.0604 9.59872 9.86533 9.68946L7.82533 10.6415L6.87467 12.6801C6.78393 12.8752 6.63934 13.0403 6.45793 13.156C6.27652 13.2717 6.06583 13.3332 5.85067 13.3332C5.6355 13.3332 5.42481 13.2717 5.2434 13.156C5.06199 13.0403 4.91741 12.8752 4.82667 12.6801L3.87467 10.6401L1.836 9.68946C1.6409 9.59872 1.47579 9.45414 1.36009 9.27273C1.24439 9.09132 1.18292 8.88063 1.18292 8.66546C1.18292 8.4503 1.24439 8.23961 1.36009 8.0582C1.47579 7.87679 1.6409 7.7322 1.836 7.64146L3.876 6.68946L4.82667 4.6508ZM5.85067 5.6108L5.052 7.32146C4.93948 7.56213 4.746 7.75561 4.50533 7.86813L2.796 8.66546L4.508 9.46413C4.748 9.57613 4.94133 9.7708 5.05467 10.0108L5.85067 11.7201L6.64933 10.0081C6.76185 9.76747 6.95534 9.57398 7.196 9.46146L8.90533 8.66546L7.19333 7.8668C6.95317 7.75403 6.76018 7.56057 6.648 7.32013L5.85067 5.6108ZM22.16 12.6508C22.2507 12.4557 22.3953 12.2906 22.5767 12.1749C22.7581 12.0592 22.9688 11.9977 23.184 11.9977C23.3992 11.9977 23.6099 12.0592 23.7913 12.1749C23.9727 12.2906 24.1173 12.4557 24.208 12.6508L25.16 14.6908L27.1987 15.6415C27.3938 15.7322 27.5589 15.8768 27.6746 16.0582C27.7903 16.2396 27.8517 16.4503 27.8517 16.6655C27.8517 16.8806 27.7903 17.0913 27.6746 17.2727C27.5589 17.4541 27.3938 17.5987 27.1987 17.6895L25.1587 18.6415L24.208 20.6801C24.1173 20.8752 23.9727 21.0403 23.7913 21.156C23.6099 21.2717 23.3992 21.3332 23.184 21.3332C22.9688 21.3332 22.7581 21.2717 22.5767 21.156C22.3953 21.0403 22.2507 20.8752 22.16 20.6801L21.208 18.6401L19.1693 17.6895C18.9742 17.5987 18.8091 17.4541 18.6934 17.2727C18.5777 17.0913 18.5163 16.8806 18.5163 16.6655C18.5163 16.4503 18.5777 16.2396 18.6934 16.0582C18.8091 15.8768 18.9742 15.7322 19.1693 15.6415L21.2093 14.6895L22.16 12.6508ZM24.5293 15.8668C24.2887 15.7543 24.0952 15.5608 23.9827 15.3201L23.184 13.6108L22.3853 15.3228C22.2728 15.5635 22.0793 15.7569 21.8387 15.8695L20.1293 16.6655L21.8413 17.4641C22.0813 17.5761 22.2747 17.7708 22.388 18.0108L23.184 19.7201L23.9827 18.0081C24.0952 17.7675 24.2887 17.574 24.5293 17.4615L26.24 16.6655L24.5293 15.8668ZM9.69333 13.9028L14.404 9.19213C14.5874 9.00841 14.8351 8.90322 15.0947 8.8988H15.1387C15.2265 8.90113 15.3142 8.90781 15.4013 8.9188C15.5587 8.9388 15.768 8.9788 16.012 9.05613C16.5013 9.21213 17.1213 9.52146 17.7187 10.1188C18.316 10.7161 18.6253 11.3361 18.7813 11.8255C18.8652 12.0876 18.9176 12.3589 18.9373 12.6335L18.9387 12.7001V12.7415C18.9346 13.0015 18.8294 13.251 18.6453 13.4348L4.536 27.5455C4.35258 27.7292 4.1049 27.8344 3.84533 27.8388H3.80133C3.71342 27.8383 3.62564 27.8316 3.53867 27.8188C3.33139 27.7915 3.127 27.7456 2.928 27.6815C2.28259 27.4682 1.69745 27.1039 1.22133 26.6188C0.736224 26.1427 0.371887 25.5575 0.158667 24.9121C0.0747703 24.6499 0.0224015 24.3787 0.00266663 24.1041L0 24.0375V23.9961C0.00407503 23.7361 0.109293 23.4865 0.293333 23.3028L9.67333 13.9241L9.69333 13.9028ZM10.7307 15.6935L2.07733 24.3468C2.15467 24.5695 2.31067 24.8801 2.63333 25.2041C2.95733 25.5268 3.268 25.6841 3.49067 25.7615L12.144 17.1081C12.0277 16.7826 11.8384 16.488 11.5907 16.2468C11.3499 15.9992 11.0557 15.81 10.7307 15.6935ZM15.448 10.9761L12.22 14.2041C12.4773 14.3655 12.7427 14.5721 13.004 14.8335C13.2667 15.0948 13.472 15.3601 13.6333 15.6188L16.8613 12.3908C16.7433 12.0663 16.5527 11.7731 16.304 11.5335C16.0648 11.285 15.772 11.0944 15.448 10.9761Z" fill="#373ED6"/>
</svg>
