<svg width="30" height="27" viewBox="0 0 30 27" fill="none" xmlns="http://www.w3.org/2000/svg">
<path d="M14.5018 24C14.5907 24 14.6796 23.9778 14.7685 23.9333C14.8574 23.8889 14.924 23.8444 14.9685 23.8L25.9018 12.8667C26.1685 12.6 26.3632 12.3 26.4858 11.9667C26.6085 11.6333 26.6694 11.3 26.6685 10.9667C26.6685 10.6111 26.6076 10.272 26.4858 9.94933C26.364 9.62667 26.1694 9.34355 25.9018 9.1L20.2352 3.43333C19.9907 3.16667 19.7072 2.97244 19.3845 2.85067C19.0618 2.72889 18.7236 2.66756 18.3698 2.66667C18.0365 2.66667 17.7032 2.728 17.3698 2.85067C17.0365 2.97333 16.7365 3.16756 16.4698 3.43333L16.1032 3.8L18.5698 6.3C18.9032 6.61111 19.1476 6.96667 19.3032 7.36667C19.4587 7.76667 19.5365 8.18889 19.5365 8.63333C19.5365 9.56667 19.22 10.3502 18.5872 10.984C17.9543 11.6178 17.1707 11.9342 16.2365 11.9333C15.792 11.9333 15.3645 11.8556 14.9538 11.7C14.5432 11.5444 14.1818 11.3111 13.8698 11L11.3685 8.53333L5.53516 14.3667C5.46849 14.4333 5.41872 14.5058 5.38583 14.584C5.35294 14.6622 5.33605 14.7453 5.33516 14.8333C5.33516 15.0111 5.40183 15.1724 5.53516 15.3173C5.66849 15.4622 5.82405 15.5342 6.00183 15.5333C6.09072 15.5333 6.1796 15.5111 6.26849 15.4667C6.35738 15.4222 6.42405 15.3778 6.46849 15.3333L10.0685 11.7333C10.3129 11.4889 10.6187 11.3609 10.9858 11.3493C11.3529 11.3378 11.6694 11.4658 11.9352 11.7333C12.1796 11.9778 12.3018 12.2889 12.3018 12.6667C12.3018 13.0444 12.1796 13.3556 11.9352 13.6L8.36849 17.2C8.30183 17.2667 8.25205 17.3391 8.21916 17.4173C8.18627 17.4956 8.16938 17.5787 8.16849 17.6667C8.16849 17.8444 8.23516 18 8.36849 18.1333C8.50183 18.2667 8.65738 18.3333 8.83516 18.3333C8.92405 18.3333 9.01294 18.3111 9.10183 18.2667C9.19072 18.2222 9.25738 18.1778 9.30183 18.1333L12.9018 14.5667C13.1463 14.3222 13.452 14.1942 13.8192 14.1827C14.1863 14.1711 14.5027 14.2991 14.7685 14.5667C15.0129 14.8111 15.1352 15.1222 15.1352 15.5C15.1352 15.8778 15.0129 16.1889 14.7685 16.4333L11.2018 20.0333C11.1352 20.0778 11.0854 20.1444 11.0525 20.2333C11.0196 20.3222 11.0027 20.4111 11.0018 20.5C11.0018 20.6778 11.0685 20.8333 11.2018 20.9667C11.3352 21.1 11.4907 21.1667 11.6685 21.1667C11.7574 21.1667 11.8409 21.1498 11.9192 21.116C11.9974 21.0822 12.0694 21.0324 12.1352 20.9667L15.7352 17.4C15.9796 17.1556 16.2854 17.0276 16.6525 17.016C17.0196 17.0044 17.336 17.1324 17.6018 17.4C17.8463 17.6444 17.9685 17.9556 17.9685 18.3333C17.9685 18.7111 17.8463 19.0222 17.6018 19.2667L14.0018 22.8667C13.9352 22.9333 13.8854 23.0058 13.8525 23.084C13.8196 23.1622 13.8027 23.2453 13.8018 23.3333C13.8018 23.5111 13.8743 23.6667 14.0192 23.8C14.164 23.9333 14.3249 24 14.5018 24ZM14.4685 26.6667C13.6463 26.6667 12.9187 26.3947 12.2858 25.8507C11.6529 25.3067 11.2805 24.6231 11.1685 23.8C10.4129 23.6889 9.7796 23.3778 9.26849 22.8667C8.75738 22.3556 8.44627 21.7222 8.33516 20.9667C7.5796 20.8556 6.95205 20.5391 6.45249 20.0173C5.95294 19.4956 5.64716 18.8676 5.53516 18.1333C4.69072 18.0222 4.00183 17.6556 3.46849 17.0333C2.93516 16.4111 2.66849 15.6778 2.66849 14.8333C2.66849 14.3889 2.75205 13.9613 2.91916 13.5507C3.08627 13.14 3.32494 12.7787 3.63516 12.4667L9.46849 6.63333C9.9796 6.12222 10.6076 5.86667 11.3525 5.86667C12.0974 5.86667 12.7249 6.12222 13.2352 6.63333L15.7352 9.13333C15.7796 9.2 15.8463 9.25022 15.9352 9.284C16.024 9.31778 16.1129 9.33422 16.2018 9.33333C16.4018 9.33333 16.5685 9.27244 16.7018 9.15067C16.8352 9.02889 16.9018 8.86755 16.9018 8.66667C16.9018 8.57778 16.8849 8.48889 16.8512 8.4C16.8174 8.31111 16.7676 8.24444 16.7018 8.2L11.9352 3.43333C11.6907 3.16667 11.4076 2.97244 11.0858 2.85067C10.764 2.72889 10.4249 2.66756 10.0685 2.66667C9.73516 2.66667 9.40183 2.728 9.06849 2.85067C8.73516 2.97333 8.43516 3.16756 8.16849 3.43333L3.46849 8.16667C3.15738 8.47778 2.93516 8.84444 2.80183 9.26667C2.66849 9.68889 2.63516 10.1111 2.70183 10.5333C2.76849 10.9111 2.69072 11.2444 2.46849 11.5333C2.24627 11.8222 1.94627 11.9889 1.56849 12.0333C1.19072 12.0778 0.857382 11.9942 0.568493 11.7827C0.279604 11.5711 0.112938 11.2769 0.0684932 10.9C-0.0648402 10.0556 -0.00350684 9.228 0.252493 8.41733C0.508493 7.60667 0.94716 6.88978 1.56849 6.26667L6.26849 1.56667C6.80183 1.05556 7.39649 0.666667 8.05249 0.4C8.70849 0.133333 9.38049 0 10.0685 0C10.7565 0 11.4289 0.133333 12.0858 0.4C12.7427 0.666667 13.3258 1.05556 13.8352 1.56667L14.2018 1.93333L14.5685 1.56667C15.1018 1.05556 15.6965 0.666667 16.3525 0.4C17.0085 0.133333 17.6805 0 18.3685 0C19.0565 0 19.7289 0.133333 20.3858 0.4C21.0427 0.666667 21.6258 1.05556 22.1352 1.56667L27.7685 7.2C28.2796 7.71111 28.6685 8.3 28.9352 8.96667C29.2018 9.63333 29.3352 10.3111 29.3352 11C29.3352 11.6889 29.2018 12.3613 28.9352 13.0173C28.6685 13.6733 28.2796 14.2564 27.7685 14.7667L16.8352 25.6667C16.524 25.9778 16.1632 26.2222 15.7525 26.4C15.3418 26.5778 14.9138 26.6667 14.4685 26.6667Z" fill="#373ED6"/>
</svg>
