<svg width="20" height="20" viewBox="0 0 20 20" fill="none" xmlns="http://www.w3.org/2000/svg">
<path d="M2.83422 11.6662C2.67653 11.6668 2.52191 11.6226 2.38835 11.5387C2.25479 11.4549 2.14775 11.3349 2.07968 11.1926C2.01161 11.0504 1.9853 10.8917 2.0038 10.7351C2.02231 10.5785 2.08487 10.4304 2.18422 10.3079L10.4342 1.8079C10.4961 1.73647 10.5804 1.6882 10.6734 1.67101C10.7663 1.65382 10.8623 1.66874 10.9457 1.71332C11.029 1.7579 11.0947 1.82948 11.132 1.91632C11.1693 2.00317 11.176 2.10011 11.1509 2.19123L9.55089 7.2079C9.50371 7.33417 9.48786 7.47 9.50471 7.60374C9.52156 7.73748 9.57061 7.86513 9.64763 7.97575C9.72466 8.08638 9.82737 8.17666 9.94695 8.23887C10.0665 8.30107 10.1994 8.33334 10.3342 8.3329H16.1676C16.3253 8.33236 16.4799 8.37658 16.6134 8.46042C16.747 8.54425 16.854 8.66427 16.9221 8.80652C16.9902 8.94877 17.0165 9.10741 16.998 9.26402C16.9795 9.42062 16.9169 9.56877 16.8176 9.69123L8.56756 18.1912C8.50567 18.2627 8.42134 18.3109 8.3284 18.3281C8.23547 18.3453 8.13945 18.3304 8.05611 18.2858C7.97278 18.2412 7.90707 18.1697 7.86978 18.0828C7.83248 17.996 7.82582 17.899 7.85089 17.8079L9.45089 12.7912C9.49807 12.665 9.51391 12.5291 9.49706 12.3954C9.48021 12.2617 9.43117 12.134 9.35415 12.0234C9.27712 11.9128 9.17441 11.8225 9.05483 11.7603C8.93524 11.6981 8.80235 11.6658 8.66756 11.6662H2.83422Z" stroke="#F9F9F9" stroke-width="1.66667" stroke-linecap="round" stroke-linejoin="round"/>
</svg>
