<svg width="20" height="20" viewBox="0 0 20 20" fill="none" xmlns="http://www.w3.org/2000/svg">
<path d="M9.68236 1.66602H9.31569C8.87366 1.66602 8.44974 1.84161 8.13718 2.15417C7.82462 2.46673 7.64902 2.89065 7.64902 3.33268V3.48268C7.64872 3.77495 7.57157 4.06201 7.42531 4.31505C7.27904 4.56809 7.06881 4.77821 6.81569 4.92435L6.45736 5.13268C6.20399 5.27896 5.91659 5.35597 5.62402 5.35597C5.33146 5.35597 5.04406 5.27896 4.79069 5.13268L4.66569 5.06602C4.28325 4.8454 3.82889 4.78555 3.40236 4.89961C2.97583 5.01366 2.61198 5.2923 2.39069 5.67435L2.20736 5.99102C1.98674 6.37346 1.92689 6.82782 2.04095 7.25435C2.155 7.68088 2.43364 8.04472 2.81569 8.26602L2.94069 8.34935C3.19259 8.49477 3.40204 8.70359 3.54823 8.95504C3.69443 9.20649 3.77227 9.49183 3.77403 9.78268V10.2077C3.77519 10.5014 3.69873 10.7901 3.55239 11.0448C3.40606 11.2994 3.19503 11.5108 2.94069 11.6577L2.81569 11.7327C2.43364 11.954 2.155 12.3178 2.04095 12.7444C1.92689 13.1709 1.98674 13.6252 2.20736 14.0077L2.39069 14.3243C2.61198 14.7064 2.97583 14.985 3.40236 15.0991C3.82889 15.2131 4.28325 15.1533 4.66569 14.9327L4.79069 14.866C5.04406 14.7197 5.33146 14.6427 5.62402 14.6427C5.91659 14.6427 6.20399 14.7197 6.45736 14.866L6.81569 15.0743C7.06881 15.2205 7.27904 15.4306 7.42531 15.6837C7.57157 15.9367 7.64872 16.2237 7.64902 16.516V16.666C7.64902 17.108 7.82462 17.532 8.13718 17.8445C8.44974 18.1571 8.87366 18.3327 9.31569 18.3327H9.68236C10.1244 18.3327 10.5483 18.1571 10.8609 17.8445C11.1734 17.532 11.349 17.108 11.349 16.666V16.516C11.3493 16.2237 11.4265 15.9367 11.5727 15.6837C11.719 15.4306 11.9292 15.2205 12.1824 15.0743L12.5407 14.866C12.7941 14.7197 13.0815 14.6427 13.374 14.6427C13.6666 14.6427 13.954 14.7197 14.2074 14.866L14.3324 14.9327C14.7148 15.1533 15.1692 15.2131 15.5957 15.0991C16.0222 14.985 16.3861 14.7064 16.6074 14.3243L16.7907 13.9993C17.0113 13.6169 17.0712 13.1625 16.9571 12.736C16.843 12.3095 16.5644 11.9456 16.1824 11.7243L16.0574 11.6577C15.803 11.5108 15.592 11.2994 15.4457 11.0448C15.2993 10.7901 15.2229 10.5014 15.224 10.2077V9.79102C15.2229 9.49733 15.2993 9.20855 15.4457 8.95393C15.592 8.6993 15.803 8.48786 16.0574 8.34102L16.1824 8.26602C16.5644 8.04472 16.843 7.68088 16.9571 7.25435C17.0712 6.82782 17.0113 6.37346 16.7907 5.99102L16.6074 5.67435C16.3861 5.2923 16.0222 5.01366 15.5957 4.89961C15.1692 4.78555 14.7148 4.8454 14.3324 5.06602L14.2074 5.13268C13.954 5.27896 13.6666 5.35597 13.374 5.35597C13.0815 5.35597 12.7941 5.27896 12.5407 5.13268L12.1824 4.92435C11.9292 4.77821 11.719 4.56809 11.5727 4.31505C11.4265 4.06201 11.3493 3.77495 11.349 3.48268V3.33268C11.349 2.89065 11.1734 2.46673 10.8609 2.15417C10.5483 1.84161 10.1244 1.66602 9.68236 1.66602Z" stroke="#F9F9F9" stroke-width="1.66667" stroke-linecap="round" stroke-linejoin="round"/>
<path d="M9.5 12.5C10.8807 12.5 12 11.3807 12 10C12 8.61929 10.8807 7.5 9.5 7.5C8.11929 7.5 7 8.61929 7 10C7 11.3807 8.11929 12.5 9.5 12.5Z" stroke="#F9F9F9" stroke-width="1.66667" stroke-linecap="round" stroke-linejoin="round"/>
</svg>
