<svg width="24" height="24" viewBox="0 0 24 24" fill="none" xmlns="http://www.w3.org/2000/svg">
<path d="M14.5 2H5.5C4.96957 2 4.46086 2.21071 4.08579 2.58579C3.71071 2.96086 3.5 3.46957 3.5 4V20C3.5 20.5304 3.71071 21.0391 4.08579 21.4142C4.46086 21.7893 4.96957 22 5.5 22H17.5C18.0304 22 18.5391 21.7893 18.9142 21.4142C19.2893 21.0391 19.5 20.5304 19.5 20V7L14.5 2Z" stroke="#373ED6" stroke-width="2" stroke-linecap="round" stroke-linejoin="round"/>
<path d="M13.5 2V6C13.5 6.53043 13.7107 7.03914 14.0858 7.41421C14.4609 7.78929 14.9696 8 15.5 8H19.5" stroke="#373ED6" stroke-width="2" stroke-linecap="round" stroke-linejoin="round"/>
<path d="M9.5 9H7.5" stroke="#373ED6" stroke-width="2" stroke-linecap="round" stroke-linejoin="round"/>
<path d="M15.5 13H7.5" stroke="#373ED6" stroke-width="2" stroke-linecap="round" stroke-linejoin="round"/>
<path d="M15.5 17H7.5" stroke="#373ED6" stroke-width="2" stroke-linecap="round" stroke-linejoin="round"/>
</svg>
